<?xml version="1.0" standalone="no"?>
<!DOCTYPE svg PUBLIC "-//W3C//DTD SVG 20010904//EN"
 "http://www.w3.org/TR/2001/REC-SVG-20010904/DTD/svg10.dtd">
<svg version="1.0" xmlns="http://www.w3.org/2000/svg"
 width="400.000000pt" height="400.000000pt" viewBox="0 0 400.000000 400.000000"
 preserveAspectRatio="xMidYMid meet">
<metadata>
Created by potrace 1.14, written by Peter Selinger 2001-2017
</metadata>
<g transform="translate(0.000000,400.000000) scale(0.100000,-0.100000)"
fill="#000000" stroke="none">
<path d="M1893 3986 c-74 -24 -1518 -864 -1564 -910 -23 -22 -56 -70 -73 -106
l-31 -65 0 -905 0 -905 31 -65 c36 -73 76 -119 149 -165 28 -17 365 -213 750
-435 426 -247 719 -409 750 -418 67 -18 178 -11 238 16 89 40 1479 847 1521
884 24 20 58 65 77 100 l34 63 0 925 0 925 -34 63 c-19 35 -53 80 -77 100 -42
37 -1427 842 -1519 883 -62 28 -190 35 -252 15z m271 -675 c24 -5 31 -14 45
-61 81 -260 338 -460 591 -460 71 0 72 9 -13 -96 -26 -33 -66 -98 -90 -146
-23 -48 -47 -88 -54 -88 -28 0 -184 55 -257 91 -275 137 -479 408 -534 708 -8
42 -7 51 7 54 25 7 273 5 305 -2z m-394 -223 c18 -64 77 -176 122 -237 l40
-53 -58 -59 c-114 -116 -286 -215 -449 -259 -99 -27 -328 -38 -431 -21 -78 13
-191 48 -199 61 -8 13 48 120 112 218 42 63 59 82 72 77 92 -36 287 -32 399 8
41 14 99 41 130 59 66 39 188 158 217 211 11 20 22 37 26 37 3 0 12 -19 19
-42z m1342 -371 c26 -39 63 -105 82 -145 l35 -74 -56 -66 c-98 -116 -162 -286
-162 -432 0 -82 27 -200 63 -277 36 -75 36 -75 12 -69 -94 23 -259 29 -351 13
-5 -1 -21 34 -34 78 -22 72 -25 98 -25 255 0 161 2 182 27 265 34 112 103 254
161 331 46 62 178 194 193 194 4 0 29 -33 55 -73z m-2102 -388 c46 -7 112 -9
172 -4 l97 7 15 -52 c29 -97 39 -175 38 -295 -1 -193 -60 -385 -167 -545 -51
-75 -195 -230 -214 -230 -21 0 -171 255 -171 291 0 6 22 36 50 66 168 190 208
483 97 714 -31 65 -32 70 -13 65 12 -3 55 -10 96 -17z m2015 -790 c90 -15 185
-48 185 -65 0 -28 -84 -178 -146 -260 l-23 -32 -63 15 c-86 21 -262 12 -341
-16 -142 -50 -277 -152 -348 -263 -32 -49 -33 -50 -42 -27 -31 79 -99 211
-130 252 -21 26 -37 53 -37 61 0 36 196 189 315 246 196 95 407 125 630 89z
m-1585 -19 c241 -66 467 -243 600 -470 41 -69 103 -241 115 -316 l6 -41 -38
-6 c-49 -9 -205 -8 -262 1 -43 7 -45 9 -62 59 -60 179 -181 320 -340 397 -89
43 -115 50 -277 72 l-32 5 45 56 c53 65 117 171 136 226 7 20 18 37 24 37 6 0
44 -9 85 -20z"/>
</g>
</svg>
